<svg id="tdLogo" xmlns="http://www.w3.org/2000/svg" viewBox="0 0 35.24 29.73"><title>taylordesens-logo</title><g id="td"><path id="t" d="M22.68,17.1l-1.22,2.53-3.27.88L11.86,34.65,13,36.06l6.73-3.41,1,2.53-8.92,4.68L7.38,34,18.05,10.13h4.78l-3.51,7.8Z" transform="translate(-7.38 -10.13)" style="fill:#fff"/><path id="d" d="M38.38,35.24L31.6,39.87l-2.92-3.95-5.8,3.95-4.34-5.95,6.58-14.67,5.75-1.46,2.29,3,4.68-10.48h4.78L31.8,34.65l1.07,1.41L37,33.24ZM29.95,20l-0.44.15L23.07,34.6l1.07,1.46,3.17-2.19L32.19,23Z" transform="translate(-7.38 -10.13)" style="fill:#fff"/></g></svg>